<svg xmlns="http://www.w3.org/2000/svg" xmlns:xlink="http://www.w3.org/1999/xlink" width="1000" zoomAndPan="magnify" viewBox="0 0 750 749.999995" height="1000" preserveAspectRatio="xMidYMid meet" version="1.0"><defs><filter x="0%" y="0%" width="100%" height="100%" id="bfd736bdb5"><feColorMatrix values="0 0 0 0 1 0 0 0 0 1 0 0 0 0 1 0 0 0 1 0" color-interpolation-filters="sRGB"/></filter><mask id="2d8ebb13df"><g filter="url(#bfd736bdb5)"><rect x="-75" width="900" fill="#000000" y="-74.999999" height="899.999994" fill-opacity="0.67"/></g></mask><clipPath id="d3b9656c69"><path d="M 4 4 L 708 4 L 708 708 L 4 708 Z M 4 4 " clip-rule="nonzero"/></clipPath><clipPath id="4317b1d98f"><path d="M 0 369.066406 L 343.230469 0.00390625 L 712.296875 343.234375 L 369.066406 712.296875 Z M 0 369.066406 " clip-rule="nonzero"/></clipPath><clipPath id="e917ca2577"><path d="M 0 369.066406 L 343.230469 0.00390625 L 712.296875 343.234375 L 369.066406 712.296875 Z M 0 369.066406 " clip-rule="nonzero"/></clipPath><clipPath id="6a5ea80077"><path d="M 1 1 L 711 1 L 711 711 L 1 711 Z M 1 1 " clip-rule="nonzero"/></clipPath><clipPath id="bbdc5350ce"><path d="M 0 369.066406 L 343.230469 0.00390625 L 712.296875 343.234375 L 369.066406 712.296875 Z M 0 369.066406 " clip-rule="nonzero"/></clipPath><clipPath id="856ad168bd"><path d="M 0 369.066406 L 343.230469 0.00390625 L 712.296875 343.234375 L 369.066406 712.296875 Z M 0 369.066406 " clip-rule="nonzero"/></clipPath><clipPath id="612ee7d68b"><rect x="0" width="713" y="0" height="713"/></clipPath><mask id="89eaee34ff"><g filter="url(#bfd736bdb5)"><rect x="-75" width="900" fill="#000000" y="-74.999999" height="899.999994" fill-opacity="0.33"/></g></mask><clipPath id="dff0f725a0"><path d="M 4 4 L 588 4 L 588 589 L 4 589 Z M 4 4 " clip-rule="nonzero"/></clipPath><clipPath id="812b0a1bed"><path d="M 0.511719 170.433594 L 422.179688 0.820312 L 591.792969 422.484375 L 170.128906 592.097656 Z M 0.511719 170.433594 " clip-rule="nonzero"/></clipPath><clipPath id="4f59511421"><path d="M 0.511719 170.433594 L 422.179688 0.820312 L 591.792969 422.484375 L 170.128906 592.097656 Z M 0.511719 170.433594 " clip-rule="nonzero"/></clipPath><clipPath id="85f1b832b9"><path d="M 1 1 L 591 1 L 591 592 L 1 592 Z M 1 1 " clip-rule="nonzero"/></clipPath><clipPath id="bd28f8c9c2"><path d="M 0.511719 170.433594 L 422.179688 0.820312 L 591.792969 422.484375 L 170.128906 592.097656 Z M 0.511719 170.433594 " clip-rule="nonzero"/></clipPath><clipPath id="43d426867d"><path d="M 0.511719 170.433594 L 422.179688 0.820312 L 591.792969 422.484375 L 170.128906 592.097656 Z M 0.511719 170.433594 " clip-rule="nonzero"/></clipPath><clipPath id="25a145bbfe"><rect x="0" width="592" y="0" height="593"/></clipPath><mask id="c21655849d"><g filter="url(#bfd736bdb5)"><rect x="-75" width="900" fill="#000000" y="-74.999999" height="899.999994" fill-opacity="0.63"/></g></mask><clipPath id="e311e65f80"><path d="M 0.242188 0.726562 L 335.757812 0.726562 L 335.757812 340.601562 L 0.242188 340.601562 Z M 0.242188 0.726562 " clip-rule="nonzero"/></clipPath><clipPath id="093edd2708"><rect x="0" width="336" y="0" height="342"/></clipPath><mask id="7afc453c09"><g filter="url(#bfd736bdb5)"><rect x="-75" width="900" fill="#000000" y="-74.999999" height="899.999994" fill-opacity="0.8"/></g></mask><clipPath id="5c5fbbcbf6"><path d="M 3 2 L 339 2 L 339 339 L 3 339 Z M 3 2 " clip-rule="nonzero"/></clipPath><clipPath id="acafd247c7"><path d="M 101.992188 0.726562 L 340.949219 101.917969 L 239.757812 340.875 L 0.800781 239.683594 Z M 101.992188 0.726562 " clip-rule="nonzero"/></clipPath><clipPath id="d20d0c6b3e"><path d="M 101.992188 0.726562 L 340.949219 101.917969 L 239.757812 340.875 L 0.800781 239.683594 Z M 101.992188 0.726562 " clip-rule="nonzero"/></clipPath><clipPath id="8baefa2172"><path d="M 1 1 L 340.878906 1 L 340.878906 340.761719 L 1 340.761719 Z M 1 1 " clip-rule="nonzero"/></clipPath><clipPath id="ece679f98c"><path d="M 101.992188 0.726562 L 340.949219 101.917969 L 239.757812 340.875 L 0.800781 239.683594 Z M 101.992188 0.726562 " clip-rule="nonzero"/></clipPath><clipPath id="08aac11a7f"><path d="M 101.992188 0.726562 L 340.949219 101.917969 L 239.757812 340.875 L 0.800781 239.683594 Z M 101.992188 0.726562 " clip-rule="nonzero"/></clipPath><clipPath id="703f7cb95d"><rect x="0" width="341" y="0" height="341"/></clipPath><clipPath id="f9e665d6cb"><path d="M 256 245 L 494 245 L 494 483 L 256 483 Z M 256 245 " clip-rule="nonzero"/></clipPath><clipPath id="a2a94cc612"><path d="M 396.445312 243.527344 L 495.085938 385.042969 L 353.570312 483.683594 L 254.929688 342.167969 Z M 396.445312 243.527344 " clip-rule="nonzero"/></clipPath><clipPath id="d554a854bd"><path d="M 396.445312 243.527344 L 495.085938 385.042969 L 353.570312 483.683594 L 254.929688 342.167969 Z M 396.445312 243.527344 " clip-rule="nonzero"/></clipPath><clipPath id="a469e4078b"><path d="M 255 243 L 495 243 L 495 484 L 255 484 Z M 255 243 " clip-rule="nonzero"/></clipPath><clipPath id="27c157f274"><path d="M 396.445312 243.527344 L 495.085938 385.042969 L 353.570312 483.683594 L 254.929688 342.167969 Z M 396.445312 243.527344 " clip-rule="nonzero"/></clipPath><clipPath id="eb23e3fcda"><path d="M 396.445312 243.527344 L 495.085938 385.042969 L 353.570312 483.683594 L 254.929688 342.167969 Z M 396.445312 243.527344 " clip-rule="nonzero"/></clipPath></defs><g mask="url(#2d8ebb13df)"><g transform="matrix(1, 0, 0, 1, 0, 23)"><g clip-path="url(#612ee7d68b)"><g clip-path="url(#d3b9656c69)"><g clip-path="url(#4317b1d98f)"><g clip-path="url(#e917ca2577)"><path fill="#d3f5fe" d="M 4.75 368.894531 L 343.339844 4.820312 L 707.414062 343.410156 L 368.824219 707.488281 Z M 4.75 368.894531 " fill-opacity="1" fill-rule="nonzero"/></g></g></g><g clip-path="url(#6a5ea80077)"><g clip-path="url(#bbdc5350ce)"><g clip-path="url(#856ad168bd)"><path fill="#d3f5fe" d="M 709.875 345.699219 L 371.285156 709.773438 C 370.003906 711.152344 367.914062 711.226562 366.535156 709.945312 L 2.460938 371.355469 C 1.082031 370.074219 1.007812 367.984375 2.289062 366.609375 L 340.878906 2.53125 C 342.160156 1.15625 344.25 1.078125 345.628906 2.359375 L 709.703125 340.949219 C 711.082031 342.230469 711.15625 344.320312 709.875 345.699219 Z M 368.652344 702.738281 L 702.667969 343.582031 L 343.511719 9.566406 L 9.496094 368.722656 Z M 368.652344 702.738281 " fill-opacity="1" fill-rule="nonzero"/></g></g></g></g></g></g><g mask="url(#89eaee34ff)"><g transform="matrix(1, 0, 0, 1, 60, 83)"><g clip-path="url(#25a145bbfe)"><g clip-path="url(#dff0f725a0)"><g clip-path="url(#812b0a1bed)"><g clip-path="url(#4f59511421)"><path fill="#95dcfd" d="M 4.453125 172.113281 L 420.402344 4.800781 L 587.714844 420.746094 L 171.769531 588.058594 Z M 4.453125 172.113281 " fill-opacity="1" fill-rule="nonzero"/></g></g></g><g clip-path="url(#85f1b832b9)"><g clip-path="url(#bd28f8c9c2)"><g clip-path="url(#43d426867d)"><path fill="#95dcfd" d="M 588.84375 423.554688 L 172.898438 590.871094 C 171.324219 591.503906 169.589844 590.761719 168.957031 589.191406 L 1.644531 173.242188 C 1.011719 171.667969 1.75 169.933594 3.324219 169.300781 L 419.269531 1.988281 C 420.84375 1.355469 422.578125 2.09375 423.210938 3.667969 L 590.523438 419.613281 C 591.15625 421.1875 590.417969 422.921875 588.84375 423.554688 Z M 173.449219 584.117188 L 583.773438 419.066406 L 418.722656 8.738281 L 8.394531 173.792969 Z M 173.449219 584.117188 " fill-opacity="1" fill-rule="nonzero"/></g></g></g></g></g></g><g mask="url(#c21655849d)"><g transform="matrix(1, 0, 0, 1, 207, 193)"><g clip-path="url(#093edd2708)"><g clip-path="url(#e311e65f80)"><path fill="#5bb8fb" d="M 0.242188 0.726562 L 335.757812 0.726562 L 335.757812 340.175781 L 0.242188 340.175781 Z M 0.242188 0.726562 " fill-opacity="1" fill-rule="nonzero"/></g></g></g></g><g mask="url(#7afc453c09)"><g transform="matrix(1, 0, 0, 1, 202, 193)"><g clip-path="url(#703f7cb95d)"><g clip-path="url(#5c5fbbcbf6)"><g clip-path="url(#acafd247c7)"><g clip-path="url(#d20d0c6b3e)"><path fill="#3792fa" d="M 102.910156 2.992188 L 338.492188 102.753906 L 238.730469 338.335938 L 3.148438 238.574219 Z M 102.910156 2.992188 " fill-opacity="1" fill-rule="nonzero"/></g></g></g><g clip-path="url(#8baefa2172)"><g clip-path="url(#ece679f98c)"><g clip-path="url(#08aac11a7f)"><path fill="#3792fa" d="M 238.054688 339.925781 L 2.476562 240.164062 C 1.585938 239.789062 1.179688 238.789062 1.558594 237.898438 L 101.320312 2.320312 C 101.699219 1.429688 102.695312 1.023438 103.585938 1.402344 L 339.164062 101.164062 C 340.054688 101.539062 340.460938 102.539062 340.082031 103.429688 L 240.320312 339.007812 C 239.945312 339.898438 238.945312 340.304688 238.054688 339.925781 Z M 5.414062 237.65625 L 237.8125 336.070312 L 336.226562 103.671875 L 103.828125 5.257812 Z M 5.414062 237.65625 " fill-opacity="1" fill-rule="nonzero"/></g></g></g></g></g></g><g clip-path="url(#f9e665d6cb)"><g clip-path="url(#a2a94cc612)"><g clip-path="url(#d554a854bd)"><path fill="#2873fa" d="M 396.15625 245.128906 L 493.53125 384.824219 L 353.835938 482.195312 L 256.464844 342.503906 Z M 396.15625 245.128906 " fill-opacity="1" fill-rule="nonzero"/></g></g></g><g clip-path="url(#a469e4078b)"><g clip-path="url(#27c157f274)"><g clip-path="url(#eb23e3fcda)"><path fill="#2873fa" d="M 352.894531 482.851562 L 255.519531 343.160156 C 255.152344 342.632812 255.277344 341.925781 255.808594 341.558594 L 395.5 244.1875 C 396.027344 243.816406 396.734375 243.941406 397.101562 244.472656 L 494.472656 384.164062 C 494.84375 384.695312 494.71875 385.398438 494.1875 385.765625 L 354.496094 483.140625 C 353.964844 483.507812 353.261719 483.382812 352.894531 482.851562 Z M 258.066406 342.789062 L 354.121094 480.59375 L 491.929688 384.539062 L 395.871094 246.730469 Z M 258.066406 342.789062 " fill-opacity="1" fill-rule="nonzero"/></g></g></g></svg>